<svg width="600" height="300" xmlns="http://www.w3.org/2000/svg">
  <rect width="600" height="300" fill="#f8f1f5" />
  
  <!-- Wine glasses -->
  <path d="M200,80 L220,200 L180,200 Z" fill="none" stroke="#8b1c3d" stroke-width="2" />
  <path d="M200,80 C230,80 230,120 200,120 C170,120 170,80 200,80 Z" fill="#8b1c3d" fill-opacity="0.8" />
  
  <path d="M300,80 L320,200 L280,200 Z" fill="none" stroke="#8b1c3d" stroke-width="2" />
  <path d="M300,80 C330,80 330,120 300,120 C270,120 270,80 300,80 Z" fill="#f1c0c0" fill-opacity="0.8" />
  
  <path d="M400,80 L420,200 L380,200 Z" fill="none" stroke="#8b1c3d" stroke-width="2" />
  <path d="M400,80 C430,80 430,120 400,120 C370,120 370,80 400,80 Z" fill="#8b1c3d" fill-opacity="0.8" />
  
  <!-- Text -->
  <text x="300" y="250" font-family="Arial" font-size="20" fill="#8b1c3d" text-anchor="middle">Wine Tasting Evening</text>
  <text x="300" y="280" font-family="Arial" font-size="14" fill="#666666" text-anchor="middle">Vineyard Lounge, Downtown</text>
</svg> 